<?xml version="1.0" encoding="UTF-8" standalone="no"?>

<!-- Created with Inkscape (http://www.inkscape.org/) -->

<svg xmlns:rdf="http://www.w3.org/1999/02/22-rdf-syntax-ns#" xmlns="http://www.w3.org/2000/svg" version="1.1" xmlns:cc="http://creativecommons.org/ns#" xmlns:dc="http://purl.org/dc/elements/1.1/" viewBox="0 0 219.7 75.63">

 <metadata>

  <rdf:RDF>

   <cc:Work rdf:about="">

    <dc:format>image/svg+xml</dc:format>

    <dc:type rdf:resource="http://purl.org/dc/dcmitype/StillImage"/>

    <dc:title/>

   </cc:Work>

  </rdf:RDF>

 </metadata>

 <g transform="translate(-798.11789,-371.79588)">

  <g fill="#fff" transform="matrix(0.92444644,0,0,0.92444644,68.599629,30.947645)">

   <path d="m824.4,424.6-0.001-35.17c0.001-3.959,0.3804-9.092-2.602-11.97l-1.069-1.032,8.045,0.001v71c-4.635-6.725-5.842-7.839-8.206-16.57l-13.71-41.92c-0.9649-3.541-2.818-10.93-5.616-14.06-0.9014-1.006-2.156-2.079-3.146-2.99h9.08l17.23,52.71" fill-rule="nonzero"/>

   <path d="m810.6,371.9c52.65,0,201.5,0.001,201.5,0.001v2.396h-200.8s-0.6831-1.34-0.7305-2.398" fill-rule="nonzero"/>

   <path d="m971.7,376.8c1.114,1.256,1.15,6.265,1.15,9.302v24.9c0,2.972,0.1525,8.063-0.9625,9.252h4.174c-1.115-1.188-0.9838-6.213-0.9838-9.252v-29.59c0.5025-0.2625,0.9838-0.4612,1.485-0.5262,1.464-0.1988,2.819,2.574,2.819,7.33,0,6.21-2.034,8.652-3.78,9.445l2.01,9.313,2.665,9.972c0.6538,2.446,1.375,3.304,2.534,3.304h2.009c-1.244-2.378-2.62-5.812-3.539-9.247l-3.145-11.95c1.79-1.255,3.472-5.812,3.472-11.62,0-6.011-1.592-10.63-4.521-10.63l-5.386,0.01" fill-rule="nonzero"/>

   <path d="m948.7,411c0,2.972,0.1312,8.063-0.9625,9.252h4.15c-1.09-1.255-0.9588-6.28-0.9588-9.252v-24.9c0-2.971-0.1312-8.165,0.9588-9.42h-4.15c1.115,1.255,0.9625,6.382,0.9625,9.42v24.9" fill-rule="nonzero"/>

   <path d="m918,376.8c1.392,1.395,1.161,6.341,1.161,9.312v24.9c0,2.972,0.13,8.063-0.9838,9.252h4.345c-1.155-1.981-1.134-4.826-1.134-8.525v-29.79c0.5025-0.2638,1.004-0.3962,1.529-0.3962,1.746,0,3.102,2.312,3.102,8.125,0,6.34-2.032,9.841-3.911,10.17,0.5025,0.7262,1.049,0.9238,1.595,0.9238,2.469,0,4.805-4.82,4.805-12.42,0-7.398-2.162-11.56-5.004-11.56h-5.505" fill-rule="nonzero"/>

   <path d="m889.2,398.4-4.108-18.61c-0.1304-0.9262-0.413-2.089-0.413-3.146h-4.322c0.7315,0.5738,1.27,2.77,1.286,4.31l-0.0312,29.81c-0.1759,3.567-0.3062,7.006-1.224,9.45h3.56c-0.6519-0.6539-0.6987-4.002-0.6987-8.525l0.0317-28.4,4.149,19.27c0.524,3.698,0.8306,5.482,1.923,7.992l4.892-27.32-0.0581,31.83c0,2.245-0.1324,4.43-0.8955,5.157h4.104c-0.873-1.849-0.9829-3.836-1.113-6.94l-0.0274-32.43c0-1.52,0.1534-3.634,0.6772-4.096h-3.778c0,1.454-0.1524,2.774-0.3281,4.161l-3.625,17.48" fill-rule="nonzero"/>

   <path d="m854.7,399.1-4.304,0,2.162-16.64,2.142,16.64zm0.6323,4.888,1.18,9.313c0.5899,4.622,0.7641,5.552-0.3061,7.005h4.478c-1.245-1.916-1.638-5.817-2.14-9.582l-4.543-33.88h-3.451c1.048,0.9912,0.6332,3.964,0.3286,6.341l-3.649,27.54c-0.4804,3.765-0.8515,7.666-2.118,9.582h4.018c-1.048-1.188-0.8951-3.309-0.4366-7.005l1.137-9.313h5.503" fill-rule="evenodd"/>

   <path d="m831.8,425.6,166.4,0,0-2.397-166.4,0,0,2.397z" fill-rule="nonzero"/>

   <path d="m894.3,434.5,1.675-4.564,1.539,4.564-3.214,0zm5.234,1.804-2.996-8.662-0.3018,0-3.461,9.298c-0.3438,0.955-0.6333,1.042-1.237,1.042v0.7201h2.762v-0.7201h-0.0699c-0.6176,0-0.9184-0.192-0.9184-0.6598,0-0.1689,0.0541-0.1264,0.1909-0.5098l0.6035-1.697h3.599l0.7979,2.483c0.288,1.146,1.813,1.74,2.252,0.6162-0.0541-0.1485-0.1514-0.4888-0.1514-0.4888-0.521,0.5942-0.8236-0.7651-1.07-1.422" fill-rule="evenodd"/>

   <path d="m923.4,438.1c-2.638,0.8145-3.78-0.4316-4.26-1.66,0.1338,0.0156,1.092-0.2006,1.57-0.4482,1.465-0.7656,2.209-2.127,2.209-3.988,0-2.709-1.701-4.436-4.23-4.436-2.542,0-4.246,1.727-4.246,4.436,0,2.259,1.225,4.053,3.448,4.402,0.6375,1.529,1.996,2.393,3.526,2.376,0.9862-0.0151,2.224-0.7475,1.984-0.6816zm-1.891-6.096c0,2.476-1.116,3.988-2.82,3.988-1.716,0-2.834-1.513-2.834-3.988,0-2.459,1.118-3.971,2.834-3.971,1.704,0,2.82,1.512,2.82,3.971" fill-rule="evenodd"/>

   <path d="m954.9,432.5,0-3.07c0-0.795,0.0263-0.859,0.705-0.8795,2.309-0.0429,3.3,0.4728,3.3,2.103,0,2.041-0.8688,2.297-3.694,2.254-0.2438,0-0.3112-0.1289-0.3112-0.4072zm0,4.401,0-3.263h1.86c1.656,0,2.239,1.673,2.36,4.423h-0.7038v0.728h2.862v-0.728h-0.7725c-0.15-2.17-0.8425-3.823-2.104-4.617,0.7175-0.4946,1.804-1.396,1.804-2.812,0-1.826-0.99-2.834-2.89-2.834h-5.089v0.7085c0.99,0.0429,1.26,0.2998,1.26,1.394v6.784c0,1.18-0.2575,1.332-1.1,1.332h-0.16v0.7719h3.854v-0.7719h-0.11c-0.9225,0-1.071-0.3652-1.071-1.116" fill-rule="evenodd"/>

   <path d="m967.8,434.5,1.678-4.564,1.538,4.564-3.215,0zm5.232,1.804-2.992-8.662-0.3025,0-3.462,9.298c-0.3438,0.955-0.6312,1.042-1.235,1.042v0.7201h2.76v-0.7201h-0.0688c-0.6175,0-0.9212-0.192-0.9212-0.6598,0-0.1689,0.0562-0.1264,0.195-0.5098l0.6025-1.697h3.599l0.7975,2.483c0.2888,1.146,1.814,1.74,2.254,0.6162-0.055-0.1485-0.1525-0.4888-0.1525-0.4888-0.5225,0.5942-0.8238-0.7651-1.072-1.422" fill-rule="evenodd"/>

   <path d="m905.3,438.7c0.2686,0.0536,0.5245,0.1591,1.643,0.1059,1.982-0.1411,3.241-1.903,3.27-3.841,0.0146-1.038-0.5948-2.13-2.01-2.73l-2.01-0.8452c-1.021-0.4229-1.488-1.092-1.488-1.744,0-0.6699,0.6952-1.251,1.757-1.251,1.274,0,2.195,0.211,2.265,2.113h1.049v-2.377h-0.4814v0.5644c-0.4526-0.5292-1.854-0.8471-3.031-0.8471-1.827,0-3.143,1.022-3.143,2.38,0,1.022,0.5654,1.954,1.883,2.587l2.051,0.9175c0.9931,0.4746,1.558,1.162,1.572,1.902,0.0298,1.233-0.9751,2.625-2.165,2.696-1.274,0.0714-1.657,0.0532-2.352-0.2114,0.3408,0.3169,0.8935,0.5292,1.19,0.5806" fill-rule="nonzero"/>

   <path d="m854.5,438.8,0-0.7065c-0.9474-0.043-1.215-0.3658-1.215-1.48v-6.538c0.0141-0.6646-0.1201-2.038,0.5874-1.436,0,0-0.0274-0.3432-0.0274-0.4931-0.8002-1.138-1.628-0.3428-1.854,0.6206v3.86c0,0.3632-0.0933,0.5131-0.3608,0.5131h-3.5c-0.2804,0-0.3214-0.1064-0.3214-0.5131v-3.002c0-1.159,0.2681-1.095,1.216-1.115v-0.6865h-3.725v0.6865c0.9478,0.0205,1.201-0.021,1.201,1.115v6.988c0,1.114-0.2139,1.436-1.201,1.48v0.7065h2.509v-4.501c0-0.4288,0.0543-0.5361,0.3214-0.5361h3.485c0.2945,0,0.375,0.1074,0.375,0.4926v2.358c0,1.157-0.2544,1.414-1.203,1.48v0.7065h3.712" fill-rule="evenodd"/>

   <path d="m859.4,434.5c0,3.453,1.891,4.792,4.414,4.748,1.11-0.0219,1.967-0.7982,2.237-0.8848-4.491,1.641-5.195-1.576-5.195-3.754,0-0.605,0.0146-0.7129,0.0146-0.7129,0-0.4316,0.0312-0.5395,0.4204-0.5395h1.862c1.261,0,1.681,0.1942,1.771,1.619h0.2851v-3.799h-0.2851c-0.061,1.381-0.5254,1.554-1.771,1.554h-1.847c-0.375,0-0.436-0.043-0.436-0.5386v-2.871c0-0.6474,0.061-0.7768,0.6611-0.7768h2.342c1.246,0,1.698,0.2368,1.892,1.705h0.2999l-0.1347-2.439h-6.41c-0.2398,0.0215-0.4048,0.1085-0.5854,0.3442-0.0899,0.1085-0.1954,0.3462-0.1954,0.3462l0.0294,0.3238c0.5415-0.3668,0.6318,0.0429,0.6318,1.187v4.489" fill-rule="nonzero"/>

   <path d="m929,429.1,0,5.305c0,2.559,0.745,3.713,2.411,3.713,1.64,0,2.629-1.28,2.629-3.671v-4.215c0-1.278-0.2575-1.678-1.232-1.699v-0.6715h2.939v0.6715c-0.8675,0.0424-1.096,0.4824-1.096,1.72v3.984,2.056c0,0.6509-0.2038,1.888,0.5138,1.3,0,0-0.0263,0.3359-0.0263,0.4829-0.6512,0.9014-1.315,0.608-1.694,0.042-0.5688,0.4829-1.381,0.7329-2.29,0.7329-1.204,0-2.14-0.3764-2.722-1.153-0.5688-0.6924-0.7588-1.721-0.7588-3.293v-4.173c-0.0125-0.6504,0.15-1.992-0.5688-1.405,0,0,0.0275-0.3355,0.0275-0.4824,0.8125-1.111,1.869-0.3985,1.869,0.7559" fill-rule="evenodd"/>

   <path d="m940.7,434.2c0,3.319,1.696,4.602,3.962,4.562,0.9975-0.0215,1.765-0.7666,2.009-0.8491-4.031,1.575-4.665-1.514-4.665-3.609,0-0.5806,0.0137-0.6846,0.0137-0.6846,0-0.414,0.0287-0.518,0.3762-0.518h1.672c1.132,0,1.51,0.187,1.591,1.556h0.2562v-3.65h-0.2562c-0.055,1.328-0.4725,1.493-1.591,1.493h-1.656c-0.3375,0-0.3925-0.0415-0.3925-0.518v-2.758c0-0.6225,0.055-0.747,0.595-0.747h2.101c1.12,0,1.522,0.2285,1.699,1.64h0.27l-0.1212-2.344h-5.756c-0.2162,0.021-0.3638,0.1025-0.525,0.3315-0.0813,0.1035-0.1762,0.332-0.1762,0.332l0.0288,0.3111c0.4838-0.354,0.565,0.041,0.565,1.14v4.314" fill-rule="nonzero"/>

   <path d="m983.3,438.8c2.279,0.042,4.106-2.546,4.106-5.665,0-3.29-1.749-5.326-4.92-5.326h-3.945v0.6576c0.9625,0.0411,1.231,0.3594,1.231,1.463v6.324c0,0.6582,0.0975,1.974-0.5675,1.4,0,0,0,0.3402,0.0137,0.4888,0.8125,1.124,1.64,0.3389,1.87-0.6168v-7.702c0-1.104,0.1225-1.316,0.895-1.316,2.578,0,3.988,1.657,3.988,4.796,0,2.142-0.6388,6.239-4.691,4.626,0.2425,0.085,1.015,0.8472,2.02,0.8696" fill-rule="evenodd"/>

   <path d="m991.9,434.2c0,3.319,1.664,4.602,3.882,4.562,0.9788-0.0215,1.731-0.7666,1.97-0.8491-3.95,1.575-4.571-1.514-4.571-3.609,0-0.5806,0.0125-0.6846,0.0125-0.6846,0-0.414,0.025-0.518,0.37-0.518h1.638c1.109,0,1.48,0.187,1.56,1.556h0.2525v-3.65h-0.2525c-0.0538,1.328-0.4638,1.493-1.56,1.493h-1.624c-0.3325,0-0.3838-0.0415-0.3838-0.518v-2.758c0-0.6225,0.0512-0.747,0.5812-0.747h2.061c1.096,0,1.491,0.2285,1.666,1.64h0.2625l-0.1188-2.344h-5.641c-0.2112,0.021-0.3575,0.1025-0.5162,0.3315-0.0775,0.1035-0.1712,0.332-0.1712,0.332l0.0263,0.3111c0.475-0.354,0.5562,0.041,0.5562,1.14v4.314" fill-rule="nonzero"/>

   <path d="m887.2,440.7c-0.1821-0.2221-0.292-0.7352-0.292-1.508v-9.278c0-0.7529,0.1099-1.248,0.292-1.488,0.2026-0.2378,0.6044-0.4039,1.228-0.44v-0.2382h-3.171l-3.795,2.608-3.667-2.608h-3.905v0.2382c0.6773,0.0361,1.118,0.1831,1.319,0.4219,0.2016,0.2398,0.3115,0.7354,0.3115,1.506v8.471c0,1.121-0.1099,1.856-0.3115,2.168-0.2198,0.2934,2.695,3.296,2.531,3.077-0.295-0.3672-0.4405-4.069-0.4405-5.245v-8.984l4.151,2.82,3.859-2.782v9.516c0,0.8994-0.1089,4.414-0.2744,4.653-0.1836,0.2392,2.347-2.688,2.164-2.907" fill-rule="nonzero"/>

   <path d="m1014,375.3c0.18,0,0.3-0.01,0.36-0.0325,0.065-0.0238,0.095-0.09,0.095-0.1925v-1.962c0-0.0937-0.032-0.1562-0.097-0.185s-0.1825-0.0412-0.3575-0.0425v-0.1525h1.321c0.335,0,0.6062,0.06,0.8112,0.1825,0.21,0.1225,0.3125,0.2925,0.3125,0.5088,0,0.18-0.082,0.33-0.25,0.45-0.165,0.1188-0.3862,0.1912-0.6662,0.22v0.0238c0.33,0.105,0.5387,0.3288,0.6312,0.67,0.092,0.34,0.1713,0.51,0.2363,0.51,0.081,0,0.1387-0.045,0.1737-0.1325,0.023-0.0587,0.044-0.1775,0.061-0.3538h0.165c-0.015,0.195-0.049,0.3412-0.099,0.4362-0.092,0.1712-0.25,0.255-0.4725,0.255-0.2125,0-0.3537-0.0675-0.425-0.205-0.048-0.0888-0.076-0.2625-0.094-0.5212-0.016-0.265-0.077-0.4375-0.18-0.515-0.1013-0.075-0.3075-0.1112-0.6188-0.105v0.9188c0,0.1025,0.044,0.17,0.1275,0.1975,0.055,0.0213,0.165,0.03,0.3325,0.0275v0.1575h-1.368v-0.1575zm-0.1512,0.2812c0.4037,0.405,0.8875,0.6062,1.456,0.6062,0.5688,0,1.052-0.2012,1.455-0.6062,0.4025-0.4012,0.6025-0.8875,0.6025-1.458,0-0.5688-0.2-1.055-0.6025-1.459-0.4025-0.4025-0.8862-0.605-1.455-0.605-0.5687,0-1.052,0.2025-1.456,0.605-0.4025,0.4038-0.6013,0.89-0.6013,1.459,0,0.57,0.1988,1.056,0.6013,1.458zm-0.1775-3.092c0.4525-0.4525,0.995-0.6775,1.634-0.6775,0.6375,0,1.181,0.225,1.632,0.6775,0.4488,0.4512,0.675,0.9962,0.675,1.635,0,0.64-0.2262,1.185-0.675,1.636-0.4512,0.4512-0.995,0.6762-1.632,0.6762-0.6387,0-1.181-0.225-1.634-0.6762-0.4488-0.4512-0.6738-0.9962-0.6738-1.636,0-0.6388,0.225-1.184,0.6738-1.635zm1.942,1.439c0.1875-0.0775,0.28-0.2462,0.28-0.51,0-0.1688-0.049-0.2975-0.15-0.3912-0.097-0.0937-0.255-0.14-0.4725-0.1412-0.1113,0-0.2,0.0163-0.265,0.045-0.065,0.03-0.099,0.09-0.099,0.1825v0.8862c0.3538,0,0.5913-0.0238,0.7063-0.0713" fill-rule="evenodd"/>

   <path d="m1004,403.2,2.82,0c0.9313,0,2.232-0.2375,2.714,2.397l0.049-6.576c-0.45,0.545-0.9312,0.545-1.412,0.545h-4.17v-18.81c1.088,0,2.286-0.0737,3.66,0.3075,1.895,0.525,2.824,1.131,3.629,3.719v-8.074h-11.64c1.53,1.726,1.886,8.894,1.886,13.07v36.34c0,4.087,0.2613,10.93-1.269,12.57h12.41l1.294-9.254c-0.9125,1.815-2.588,3.323-4.899,4.492-1.136,0.5766-3.185,1.091-5.069,1.091v-31.82" fill-rule="nonzero"/>

   <path d="m840.4,430.5-0.3755,0c0.1138-1.131-0.1148-1.131-0.3428-1.46-0.2451-0.3286-0.7848-0.4928-1.634-0.4928h-0.5746c-0.063,0.0196-0.1158,0.046-0.1626,0.0821l0.0244,9.416h0.3325v0.7354h-3.157v-0.7071c0.224-0.0102,0.4096-0.0336,0.5595-0.0786,0.3486-0.1215,0.5039-0.311,0.5791-0.6371v-8.582c-0.064-0.1201-0.1578-0.1885-0.2896-0.2286h-0.4481c-0.8496,0-1.389,0.1641-1.634,0.4928-0.229,0.3291-0.4575,0.3291-0.3427,1.46h-0.3755l-0.6855-2.809h9.211l-0.685,2.809" fill-rule="nonzero"/>

  </g>

 </g>

</svg>

